<?xml version="1.0" encoding="utf-8"?>
<!-- Generator: Adobe Illustrator 16.0.0, SVG Export Plug-In . SVG Version: 6.00 Build 0)  -->
<!DOCTYPE svg PUBLIC "-//W3C//DTD SVG 1.1//EN" "http://www.w3.org/Graphics/SVG/1.1/DTD/svg11.dtd">
<svg version="1.1" id="Calque_1" xmlns="http://www.w3.org/2000/svg" xmlns:xlink="http://www.w3.org/1999/xlink" x="0px" y="0px"
	 width="70.87px" height="70.87px" viewBox="0 0 70.87 70.87" enable-background="new 0 0 70.87 70.87" xml:space="preserve">
<g>
	<path fill="#5A5151" d="M39.874,15.829c-1.188-0.315-2.444,0.393-2.761,1.653l-9.148,34.804c-0.317,1.182,0.394,2.443,1.654,2.756
		c0.159,0.081,0.397,0.081,0.552,0.081c1.027,0,1.975-0.709,2.21-1.732l9.148-34.885C41.845,17.324,41.132,16.143,39.874,15.829z"/>
	<path fill="#5A5151" d="M24.493,22.206c-0.871-0.866-2.368-0.866-3.236,0L9.664,33.861c-0.868,0.866-0.868,2.362,0,3.23
		L21.18,48.744c0.476,0.473,1.027,0.708,1.656,0.708c0.554,0,1.183-0.235,1.577-0.628c0.868-0.869,0.868-2.363,0-3.232
		l-9.857-10.157l9.938-10.001C25.361,24.49,25.361,23.073,24.493,22.206z"/>
	<path fill="#5A5151" d="M61.092,33.861L49.493,22.206c-0.863-0.866-2.364-0.866-3.23,0c-0.868,0.868-0.868,2.363,0,3.229
		l9.935,10.001l-9.935,10.001c-0.868,0.864-0.868,2.361,0,3.228c0.474,0.473,1.025,0.631,1.577,0.631
		c0.551,0,1.183-0.238,1.653-0.708L61.092,37.01C61.959,36.144,61.959,34.727,61.092,33.861z"/>
	<path fill="#5A5151" d="M35.377,0C15.58,0.158-0.275,16.143-0.114,35.672C0.041,55.042,15.893,70.87,35.377,70.87h0.239
		c9.465-0.078,18.375-3.778,25.001-10.55c6.626-6.775,10.333-15.673,10.253-25.122C70.714,15.829,54.859,0,35.377,0z M57.224,57.011
		c-5.755,5.828-13.485,9.054-21.691,9.135h-0.156c-16.8,0-30.604-13.702-30.685-30.474C4.615,18.741,18.261,4.961,35.219,4.805
		c17.036,0,30.762,13.701,30.921,30.473C66.141,43.467,62.985,51.186,57.224,57.011z"/>
</g>
</svg>
