<?xml version="1.0" encoding="utf-8"?>
<!-- Generator: Adobe Illustrator 16.0.0, SVG Export Plug-In . SVG Version: 6.00 Build 0)  -->
<!DOCTYPE svg PUBLIC "-//W3C//DTD SVG 1.1//EN" "http://www.w3.org/Graphics/SVG/1.1/DTD/svg11.dtd">
<svg version="1.1" id="Calque_1" xmlns="http://www.w3.org/2000/svg" xmlns:xlink="http://www.w3.org/1999/xlink" x="0px" y="0px"
	 width="25px" height="25px" viewBox="0 0 25 25" enable-background="new 0 0 25 25" xml:space="preserve">
<g>
	<path fill="#5A5151" d="M14.084,5.61c-0.419-0.111-0.861,0.139-0.973,0.583L9.889,18.476c-0.111,0.417,0.139,0.862,0.583,0.973
		c0.055,0.028,0.14,0.028,0.194,0.028c0.362,0,0.695-0.25,0.779-0.611l3.221-12.31C14.778,6.138,14.526,5.721,14.084,5.61z"/>
	<path fill="#5A5151" d="M8.667,7.861c-0.307-0.306-0.834-0.306-1.14,0l-4.083,4.113c-0.306,0.306-0.306,0.833,0,1.14L7.5,17.226
		c0.167,0.167,0.361,0.25,0.583,0.25c0.195,0,0.417-0.083,0.556-0.222c0.306-0.307,0.306-0.834,0-1.141l-3.472-3.584L8.667,9
		C8.972,8.667,8.972,8.167,8.667,7.861z"/>
	<path fill="#5A5151" d="M21.556,11.974l-4.083-4.113c-0.306-0.306-0.833-0.306-1.14,0c-0.305,0.306-0.305,0.834,0,1.139l3.5,3.529
		l-3.5,3.529c-0.305,0.305-0.305,0.833,0,1.139c0.168,0.167,0.361,0.223,0.556,0.223s0.417-0.084,0.584-0.25l4.083-4.085
		C21.862,12.779,21.862,12.279,21.556,11.974z"/>
	<path fill="#5A5151" d="M12.5,0.025C5.527,0.081-0.057,5.721,0,12.613c0.054,6.835,5.637,12.42,12.5,12.42h0.084
		c3.333-0.027,6.47-1.333,8.805-3.723c2.334-2.391,3.639-5.53,3.61-8.865C24.945,5.61,19.361,0.025,12.5,0.025z M20.194,20.143
		c-2.026,2.057-4.75,3.195-7.64,3.224H12.5c-5.917,0-10.779-4.835-10.807-10.753C1.666,6.638,6.471,1.775,12.444,1.72
		c6,0,10.834,4.835,10.89,10.753C23.334,15.363,22.224,18.087,20.194,20.143z"/>
</g>
</svg>
